# xmcd
#
# Track frame offsets: 
#        150
#        9279
#        22497
#        35743
#        47046
#        57796
#        71424
#        81447
#        94550
#        107402
#        121440
#        133421
#        141029
#        149343
#        161444
#        173256
#        185748
#        198540
#        210047
#        218103
#        225411
#        241315
#        254403
#        268320
#        282665
#
# Disc length: 3949 seconds
#
# Revision: 0
# Processed by: cddbd v1.5.2PL0 Copyright (c) Steve Scherf et al.
# Submitted via: ExactAudioCopyFreeDBPlugin 1.0
#
DISCID=700f6b19
DTITLE=Dean Martin - 25 Classic Performances
DYEAR=2003
DGENRE=Easy Listening
TTITLE0=Everybody Loves Somebody
TTITLE1=I Got The Sun In The Morning
TTITLE2=Walking My Baby Back Home
TTITLE3=Don't Let The Stars Get In Your Eyes
TTITLE4=Because You're Mine
TTITLE5=Why Don't You Believe Me
TTITLE6=Takes Two To Tango
TTITLE7=Santa Lucia
TTITLE8=One Foot In Heaven
TTITLE9=Tara Talara Tala
TTITLE10=Deep Purple
TTITLE11=For Me And My Gal
TTITLE12=Rambling Rose
TTITLE13=Heart And Soul
TTITLE14=Hold Me
TTITLE15=Louise
TTITLE16=Memory Lane
TTITLE17=Oh Marie
TTITLE18=On A Slow Boat To China
TTITLE19=There'll Be A Hot Time In The Town Of Berlin
TTITLE20=Somewhere Along The Way
TTITLE21=If You Were The Only Girl In The World
TTITLE22=If I Knew Then (What I Know Now)
TTITLE23=Til Then
TTITLE24=That Certain Party
EXTD=Barcode: \nRelease year: 2003\nRelease country: AU\nRelease label
EXTD=: Mastertech\nRelease catalog#: DIAMOND005/2\n
EXTT0=
EXTT1=
EXTT2=
EXTT3=
EXTT4=
EXTT5=
EXTT6=
EXTT7=
EXTT8=
EXTT9=
EXTT10=
EXTT11=
EXTT12=
EXTT13=
EXTT14=
EXTT15=
EXTT16=
EXTT17=
EXTT18=
EXTT19=
EXTT20=
EXTT21=
EXTT22=
EXTT23=
EXTT24=
PLAYORDER=
